<?xml version="1.0" standalone="no"?>
<!DOCTYPE svg PUBLIC "-//W3C//DTD SVG 20010904//EN"
 "http://www.w3.org/TR/2001/REC-SVG-20010904/DTD/svg10.dtd">
<svg version="1.0" xmlns="http://www.w3.org/2000/svg"
 width="1200.000000pt" height="1200.000000pt" viewBox="0 0 1200.000000 1200.000000"
 preserveAspectRatio="xMidYMid meet">

<g transform="translate(0.000000,1200.000000) scale(0.100000,-0.100000)"
fill="#000000" stroke="none">
<path d="M0 6000 l0 -6000 6000 0 6000 0 0 6000 0 6000 -6000 0 -6000 0 0
-6000z m8121 3394 l239 -238 0 -1901 0 -1900 -238 -238 -237 -237 -1898 0
-1897 0 -235 238 -234 237 -1 1900 0 1900 233 233 232 232 880 2 c484 2 1338
5 1899 6 l1018 4 239 -238z m-2511 -5692 c0 -351 3 -471 12 -480 7 -7 44 -12
95 -12 l83 0 0 -80 0 -80 -95 0 c-102 0 -151 13 -193 53 -58 54 -57 40 -60
575 l-3 492 81 0 80 0 0 -468z m680 388 l0 -80 -80 0 -80 0 0 80 0 80 80 0 80
0 0 -80z m520 -60 l0 -140 175 0 175 0 0 -80 0 -80 -175 0 -175 0 0 -241 c0
-146 4 -248 10 -260 10 -18 23 -19 175 -19 l165 0 0 -80 0 -80 -175 0 c-221 0
-261 13 -306 102 -18 35 -19 66 -19 528 l0 490 75 0 75 0 0 -140z m830 0 l0
-140 175 0 175 0 0 -80 0 -80 -175 0 -175 0 0 -241 c0 -146 4 -248 10 -260 10
-18 23 -19 175 -19 l165 0 0 -80 0 -80 -175 0 c-221 0 -261 13 -306 102 -18
35 -19 66 -19 528 l0 490 75 0 75 0 0 -140z m-2654 41 c54 -25 92 -75 104
-141 13 -70 13 -672 -1 -730 -13 -59 -52 -108 -103 -131 -38 -17 -71 -19 -409
-19 -309 0 -374 2 -404 15 -48 20 -71 41 -94 87 -18 35 -19 64 -19 418 0 360
1 383 20 420 20 38 57 72 101 89 14 6 187 10 394 10 341 1 373 -1 411 -18z
m1304 -601 l0 -420 -80 0 -80 0 0 420 0 420 80 0 80 0 0 -420z m-3510 -1320
c0 -28 2 -30 40 -30 29 0 40 -4 40 -15 0 -11 -11 -15 -40 -15 l-40 0 0 -65 0
-65 40 0 c29 0 40 -4 40 -15 0 -18 -60 -21 -91 -5 -17 10 -19 22 -19 125 0 96
3 115 15 115 10 0 15 -10 15 -30z m2510 0 l0 -30 64 0 c85 0 96 -11 96 -95 0
-87 -10 -95 -111 -95 l-79 0 0 125 c0 104 2 125 15 125 10 0 15 -10 15 -30z
m540 15 c0 -8 -7 -15 -15 -15 -8 0 -15 7 -15 15 0 8 7 15 15 15 8 0 15 -7 15
-15z m120 -15 c0 -28 2 -30 40 -30 29 0 40 -4 40 -15 0 -11 -11 -15 -40 -15
l-40 0 0 -65 0 -65 40 0 c29 0 40 -4 40 -15 0 -18 -60 -21 -91 -5 -17 10 -19
22 -19 125 0 96 3 115 15 115 10 0 15 -10 15 -30z m1990 -80 c0 -103 1 -110
20 -110 11 0 20 -7 20 -15 0 -20 -34 -19 -54 1 -23 22 -24 234 -1 234 12 0 15
-19 15 -110z m150 95 c0 -8 -7 -15 -15 -15 -8 0 -15 7 -15 15 0 8 7 15 15 15
8 0 15 -7 15 -15z m1140 -15 c0 -28 2 -30 40 -30 29 0 40 -4 40 -15 0 -11 -11
-15 -40 -15 l-40 0 0 -65 0 -65 40 0 c29 0 40 -4 40 -15 0 -18 -60 -21 -91 -5
-17 10 -19 22 -19 125 0 96 3 115 15 115 10 0 15 -10 15 -30z m-7340 5 c0 -12
-18 -15 -100 -15 l-100 0 0 -90 0 -90 100 0 c82 0 100 -3 100 -15 0 -12 -18
-15 -99 -15 -129 0 -131 2 -131 120 0 118 2 120 131 120 81 0 99 -3 99 -15z
m1680 0 c0 -12 -17 -15 -90 -15 l-90 0 0 -40 0 -40 75 0 c60 0 75 -3 75 -15 0
-12 -15 -15 -75 -15 l-75 0 0 -50 c0 -38 -4 -50 -15 -50 -12 0 -15 20 -15 120
l0 120 105 0 c87 0 105 -3 105 -15z m1044 -65 c16 -44 32 -82 36 -85 5 -3 22
32 38 77 40 111 54 110 94 0 17 -46 34 -80 38 -75 5 4 20 43 35 86 16 45 33
77 41 77 8 0 14 -2 14 -4 0 -23 -85 -236 -94 -236 -6 0 -27 44 -46 97 l-34 97
-17 -41 c-10 -23 -25 -66 -35 -97 -10 -31 -24 -56 -31 -56 -7 0 -13 1 -13 3 0
2 -18 52 -40 113 -45 123 -45 124 -27 124 8 0 25 -34 41 -80z m2397 70 c23
-13 26 -40 4 -40 -8 0 -15 5 -15 10 0 6 -32 10 -75 10 l-75 0 0 -28 c0 -25 9
-33 80 -71 74 -39 80 -41 80 -22 0 12 6 21 15 21 10 0 15 -10 15 -28 0 -16 8
-32 20 -40 28 -17 25 -29 -7 -31 -208 -13 -210 -13 -227 4 -18 19 -22 100 -5
110 6 4 7 19 4 36 -5 20 -1 38 9 54 15 23 23 25 87 25 39 0 79 -5 90 -10z
m520 0 c17 -10 19 -22 19 -110 0 -119 -1 -120 -119 -120 -106 0 -111 5 -111
120 0 115 5 120 111 120 44 0 89 -5 100 -10z m1560 0 c23 -13 26 -40 4 -40 -8
0 -15 5 -15 10 0 6 -35 10 -85 10 l-85 0 0 -40 0 -40 81 0 c104 0 119 -8 119
-65 0 -57 -15 -65 -115 -65 -42 0 -85 5 -96 10 -23 13 -26 40 -4 40 8 0 15 -4
15 -10 0 -6 35 -10 85 -10 l85 0 0 35 0 35 -84 0 c-99 0 -116 11 -116 70 0 59
18 70 111 70 44 0 89 -5 100 -10z m-6971 -55 c0 -12 -13 -15 -55 -15 l-55 0 0
-80 c0 -64 -3 -80 -15 -80 -22 0 -22 152 1 174 21 22 124 23 124 1z m254 -1
c9 -9 16 -32 16 -55 l0 -39 -80 0 c-79 0 -80 0 -80 -25 0 -25 1 -25 80 -25 64
0 80 -3 80 -15 0 -12 -15 -15 -76 -15 -108 0 -114 5 -114 95 0 88 6 94 97 95
43 0 66 -5 77 -16z m270 0 c12 -11 16 -36 16 -95 l0 -79 -76 0 c-99 0 -114 8
-114 65 l0 45 80 0 c79 0 80 0 80 25 0 25 -1 25 -80 25 -64 0 -80 3 -80 15 0
22 152 22 174 -1z m470 0 c9 -9 16 -32 16 -55 l0 -39 -80 0 c-79 0 -80 0 -80
-25 0 -25 1 -25 80 -25 64 0 80 -3 80 -15 0 -12 -15 -15 -76 -15 -108 0 -114
5 -114 95 0 88 6 94 97 95 43 0 66 -5 77 -16z m676 1 c0 -12 -13 -15 -55 -15
l-55 0 0 -80 c0 -64 -3 -80 -15 -80 -22 0 -22 152 1 174 21 22 124 23 124 1z
m254 -1 c9 -9 16 -32 16 -55 l0 -39 -80 0 c-79 0 -80 0 -80 -25 0 -25 1 -25
80 -25 64 0 80 -3 80 -15 0 -12 -15 -15 -76 -15 -108 0 -114 5 -114 95 0 88 6
94 97 95 43 0 66 -5 77 -16z m270 0 c9 -9 16 -32 16 -55 l0 -39 -80 0 c-79 0
-80 0 -80 -25 0 -25 1 -25 80 -25 64 0 80 -3 80 -15 0 -12 -15 -15 -76 -15
-108 0 -114 5 -114 95 0 88 6 94 97 95 43 0 66 -5 77 -16z m840 0 c9 -9 16
-32 16 -55 l0 -39 -80 0 c-79 0 -80 0 -80 -25 0 -25 1 -25 80 -25 64 0 80 -3
80 -15 0 -12 -15 -15 -76 -15 -108 0 -114 5 -114 95 0 88 6 94 97 95 43 0 66
-5 77 -16z m550 0 c9 -8 16 -17 16 -18 0 -2 -36 -1 -80 2 l-80 5 0 -27 c0 -25
2 -26 64 -26 71 0 96 -14 96 -55 0 -40 -25 -55 -91 -55 -58 0 -99 12 -99 29 0
4 36 6 80 3 l80 -5 0 27 c0 25 -2 26 -61 26 -79 0 -99 11 -99 55 0 44 18 54
97 55 43 0 66 -5 77 -16z m126 -79 c0 -78 -3 -95 -15 -95 -12 0 -15 17 -15 95
0 78 3 95 15 95 12 0 15 -17 15 -95z m454 79 c9 -9 16 -32 16 -55 l0 -39 -80
0 c-79 0 -80 0 -80 -25 0 -25 1 -25 80 -25 64 0 80 -3 80 -15 0 -12 -15 -15
-76 -15 -108 0 -114 5 -114 95 0 88 6 94 97 95 43 0 66 -5 77 -16z m280 0 c9
-8 16 -17 16 -18 0 -2 -36 -1 -80 2 l-80 5 0 -27 c0 -25 2 -26 64 -26 71 0 96
-14 96 -55 0 -40 -25 -55 -91 -55 -58 0 -99 12 -99 29 0 4 36 6 80 3 l80 -5 0
27 c0 25 -2 26 -61 26 -79 0 -99 11 -99 55 0 44 18 54 97 55 43 0 66 -5 77
-16z m1240 0 c23 -22 23 -174 1 -174 -12 0 -15 16 -15 80 l0 80 -65 0 -65 0 0
-80 c0 -64 -3 -80 -15 -80 -12 0 -15 17 -15 95 l0 95 79 0 c59 0 84 -4 95 -16z
m286 -79 c0 -78 -3 -95 -15 -95 -12 0 -15 17 -15 95 0 78 3 95 15 95 12 0 15
-17 15 -95z m264 79 c23 -22 23 -174 1 -174 -12 0 -15 16 -15 80 l0 80 -65 0
-65 0 0 -80 c0 -64 -3 -80 -15 -80 -12 0 -15 17 -15 95 l0 95 79 0 c59 0 84
-4 95 -16z m280 0 c9 -9 16 -32 16 -55 l0 -39 -80 0 c-79 0 -80 0 -80 -25 0
-25 1 -25 80 -25 64 0 80 -3 80 -15 0 -12 -15 -15 -76 -15 -108 0 -114 5 -114
95 0 88 6 94 97 95 43 0 66 -5 77 -16z m930 0 c11 -11 16 -35 16 -79 0 -83
-12 -95 -91 -95 -92 0 -99 7 -99 95 0 88 6 94 97 95 43 0 66 -5 77 -16z m226
1 c0 -12 -13 -15 -55 -15 l-55 0 0 -80 c0 -64 -3 -80 -15 -80 -22 0 -22 152 1
174 21 22 124 23 124 1z m254 -1 c9 -9 16 -32 16 -55 l0 -39 -80 0 c-79 0 -80
0 -80 -25 0 -25 1 -25 80 -25 64 0 80 -3 80 -15 0 -12 -15 -15 -76 -15 -108 0
-114 5 -114 95 0 88 6 94 97 95 43 0 66 -5 77 -16z m280 0 c9 -8 16 -17 16
-18 0 -2 -36 -1 -80 2 l-80 5 0 -27 c0 -25 2 -26 64 -26 71 0 96 -14 96 -55 0
-40 -25 -55 -91 -55 -58 0 -99 12 -99 29 0 4 36 6 80 3 l80 -5 0 27 c0 25 -2
26 -61 26 -79 0 -99 11 -99 55 0 44 18 54 97 55 43 0 66 -5 77 -16z"/>
<path d="M4560 7250 l0 -1420 1425 0 1425 0 0 1420 0 1420 -1425 0 -1425 0 0
-1420z"/>
<path d="M4230 3920 c-13 -8 -15 -58 -15 -350 0 -292 2 -342 15 -350 9 -6 157
-10 352 -10 323 0 338 1 348 19 14 27 14 655 0 682 -10 18 -25 19 -348 19
-195 0 -343 -4 -352 -10z"/>
<path d="M5290 2025 l0 -65 65 0 65 0 0 65 0 65 -65 0 -65 0 0 -65z"/>
<path d="M6840 2005 l0 -45 80 0 c44 0 80 3 80 8 0 7 -139 83 -152 82 -5 0 -8
-20 -8 -45z"/>
<path d="M7350 2050 l0 -90 85 0 85 0 0 90 0 90 -85 0 -85 0 0 -90z"/>
<path d="M2230 2065 c0 -24 2 -25 65 -25 63 0 65 1 65 25 0 24 -2 25 -65 25
-63 0 -65 -1 -65 -25z"/>
<path d="M2500 1985 c0 -24 2 -25 65 -25 63 0 65 1 65 25 0 24 -2 25 -65 25
-63 0 -65 -1 -65 -25z"/>
<path d="M2970 2065 c0 -24 2 -25 65 -25 63 0 65 1 65 25 0 24 -2 25 -65 25
-63 0 -65 -1 -65 -25z"/>
<path d="M3900 2065 c0 -24 2 -25 65 -25 63 0 65 1 65 25 0 24 -2 25 -65 25
-63 0 -65 -1 -65 -25z"/>
<path d="M4170 2065 c0 -24 2 -25 65 -25 63 0 65 1 65 25 0 24 -2 25 -65 25
-63 0 -65 -1 -65 -25z"/>
<path d="M5010 2065 c0 -24 2 -25 65 -25 63 0 65 1 65 25 0 24 -2 25 -65 25
-63 0 -65 -1 -65 -25z"/>
<path d="M6140 2065 c0 -24 2 -25 65 -25 63 0 65 1 65 25 0 24 -2 25 -65 25
-63 0 -65 -1 -65 -25z"/>
<path d="M8490 2065 c0 -24 2 -25 65 -25 63 0 65 1 65 25 0 24 -2 25 -65 25
-63 0 -65 -1 -65 -25z"/>
<path d="M9420 2025 l0 -65 65 0 65 0 0 65 0 65 -65 0 -65 0 0 -65z"/>
<path d="M9900 2065 c0 -24 2 -25 65 -25 63 0 65 1 65 25 0 24 -2 25 -65 25
-63 0 -65 -1 -65 -25z"/>
</g>
</svg>
